<mxfile host="www.draw.io" modified="2019-12-09T03:48:45.192Z" agent="Mozilla/5.0 (Windows NT 10.0; Win64; x64) AppleWebKit/537.36 (KHTML, like Gecko) Chrome/78.0.3904.108 Safari/537.36" etag="u8GIRGfvml79887tGlWr" version="12.3.8" type="github" pages="1">
  <diagram id="psncUOcPzrPkPdhyHoQN" name="Page-1">
    <mxGraphModel dx="926" dy="690" grid="1" gridSize="10" guides="1" tooltips="1" connect="1" arrows="1" fold="1" page="1" pageScale="1" pageWidth="827" pageHeight="1169" math="0" shadow="0">
      <root>
        <mxCell id="0"/>
        <mxCell id="1" parent="0"/>
        <mxCell id="Mz33kV136OjLrFjEcRnl-25" value="" style="dashed=0;shape=rect;fillColor=#ffffff;strokeColor=none;" vertex="1" parent="1">
          <mxGeometry x="469" y="10" width="358" height="642" as="geometry"/>
        </mxCell>
        <mxCell id="Mz33kV136OjLrFjEcRnl-26" value="12:30" style="dashed=0;shape=rect;align=right;fillColor=#C2185B;strokeColor=none;fontColor=#FFFFFF;spacingRight=4;spacingTop=1;fontStyle=0;fontSize=13;resizeWidth=1;" vertex="1" parent="Mz33kV136OjLrFjEcRnl-25">
          <mxGeometry width="358" height="24" relative="1" as="geometry"/>
        </mxCell>
        <mxCell id="Mz33kV136OjLrFjEcRnl-27" value="" style="dashed=0;shape=mxgraph.gmdl.top_bar;strokeColor=none;" vertex="1" parent="Mz33kV136OjLrFjEcRnl-26">
          <mxGeometry x="1" y="0.5" width="46" height="14" relative="1" as="geometry">
            <mxPoint x="-92" y="-7" as="offset"/>
          </mxGeometry>
        </mxCell>
        <mxCell id="Mz33kV136OjLrFjEcRnl-28" value="My music" style="dashed=0;shape=rect;strokeColor=none;fillColor=#E91E63;resizeWidth=1;fontSize=22;fontColor=#FFFFFF;spacingTop=-3;verticalAlign=middle;spacingLeft=72;align=left;" vertex="1" parent="Mz33kV136OjLrFjEcRnl-25">
          <mxGeometry width="358" height="57" relative="1" as="geometry">
            <mxPoint y="24" as="offset"/>
          </mxGeometry>
        </mxCell>
        <mxCell id="Mz33kV136OjLrFjEcRnl-29" value="" style="dashed=0;shape=mxgraph.gmdl.preferences;strokeColor=none;fillColor=#6F0E2F;" vertex="1" parent="Mz33kV136OjLrFjEcRnl-28">
          <mxGeometry y="0.5" width="24" height="16" relative="1" as="geometry">
            <mxPoint x="16" y="-8" as="offset"/>
          </mxGeometry>
        </mxCell>
        <mxCell id="Mz33kV136OjLrFjEcRnl-30" value="" style="dashed=0;shape=mxgraph.gmdl.search;strokeColor=#2D566B;fillColor=none;strokeWidth=2;" vertex="1" parent="Mz33kV136OjLrFjEcRnl-28">
          <mxGeometry x="1" y="0.5" width="16" height="16" relative="1" as="geometry">
            <mxPoint x="-30" y="-8" as="offset"/>
          </mxGeometry>
        </mxCell>
        <mxCell id="Mz33kV136OjLrFjEcRnl-31" value="" style="dashed=0;shape=mxgraph.gmdl.marginRect;rectMargin=8;rectMarginBottom=-4;fillColor=#2D566B;strokeColor=none;shadow=1;resizeWidth=1;resizeHeight=1;" vertex="1" parent="Mz33kV136OjLrFjEcRnl-25">
          <mxGeometry width="358" height="172" relative="1" as="geometry">
            <mxPoint y="81" as="offset"/>
          </mxGeometry>
        </mxCell>
        <mxCell id="Mz33kV136OjLrFjEcRnl-32" value="Unlimited music now" style="text;whiteSpace=wrap;fontColor=#FFFFFF;verticalAlign=bottom;align=left;fontSize=24;spacing=16;spacingBottom=-8;resizeWidth=1;" vertex="1" parent="Mz33kV136OjLrFjEcRnl-31">
          <mxGeometry width="342" height="60" relative="1" as="geometry"/>
        </mxCell>
        <mxCell id="Mz33kV136OjLrFjEcRnl-33" value="Listen to your favorite artists and albums whenever wherever online and offline." style="text;whiteSpace=wrap;spacingLeft=16;spacingRight=16;spacing=0;fontSize=14;fontColor=#FFFFFF;resizeWidth=1;" vertex="1" parent="Mz33kV136OjLrFjEcRnl-31">
          <mxGeometry width="342" height="50" relative="1" as="geometry">
            <mxPoint y="55" as="offset"/>
          </mxGeometry>
        </mxCell>
        <mxCell id="Mz33kV136OjLrFjEcRnl-34" value="LISTEN NOW" style="text;verticalAlign=middle;fontSize=13;spacingLeft=0;spacing=0;spacingBottom=0;fontColor=#FFFFFF;align=center;" vertex="1" parent="Mz33kV136OjLrFjEcRnl-31">
          <mxGeometry y="1" width="120" height="52" relative="1" as="geometry">
            <mxPoint x="8" y="-52" as="offset"/>
          </mxGeometry>
        </mxCell>
        <mxCell id="Mz33kV136OjLrFjEcRnl-35" value="" style="dashed=0;shape=mxgraph.gmdl.marginRect;rectMargin=8;rectMarginTop=-4;rectMarginBottom=-4;fillColor=#227586;strokeColor=none;shadow=1;" vertex="1" parent="Mz33kV136OjLrFjEcRnl-25">
          <mxGeometry y="255" width="358" height="156" as="geometry"/>
        </mxCell>
        <mxCell id="Mz33kV136OjLrFjEcRnl-36" value="Supermodel" style="text;whiteSpace=wrap;fontColor=#FFFFFF;verticalAlign=bottom;align=left;fontSize=24;spacing=16;spacingBottom=-8;" vertex="1" parent="Mz33kV136OjLrFjEcRnl-35">
          <mxGeometry width="342" height="60" as="geometry"/>
        </mxCell>
        <mxCell id="Mz33kV136OjLrFjEcRnl-37" value="Foster the People" style="text;whiteSpace=wrap;spacingLeft=16;spacingRight=16;spacing=0;fontSize=14;fontColor=#FFFFFF;" vertex="1" parent="Mz33kV136OjLrFjEcRnl-35">
          <mxGeometry y="55" width="342" height="50" as="geometry"/>
        </mxCell>
        <mxCell id="Mz33kV136OjLrFjEcRnl-38" value="" style="dashed=0;shape=mxgraph.gmdl.marginRect;rectMargin=24;rectMarginRight=8;fillColor=#BDBDBD;strokeColor=none;" vertex="1" parent="Mz33kV136OjLrFjEcRnl-35">
          <mxGeometry x="194" width="164" height="156" as="geometry">
            <mxPoint x="-160" as="offset"/>
          </mxGeometry>
        </mxCell>
        <mxCell id="Mz33kV136OjLrFjEcRnl-39" value="" style="dashed=0;shape=mxgraph.gmdl.marginRect;rectMargin=8;rectMarginTop=-4;rectMarginBottom=-4;fillColor=#871E6A;strokeColor=none;shadow=1;" vertex="1" parent="Mz33kV136OjLrFjEcRnl-25">
          <mxGeometry y="411" width="358" height="156" as="geometry"/>
        </mxCell>
        <mxCell id="Mz33kV136OjLrFjEcRnl-40" value="Halcyon Days" style="text;whiteSpace=wrap;fontColor=#FFFFFF;verticalAlign=bottom;align=left;fontSize=24;spacing=16;spacingBottom=-8;" vertex="1" parent="Mz33kV136OjLrFjEcRnl-39">
          <mxGeometry width="342" height="60" as="geometry"/>
        </mxCell>
        <mxCell id="Mz33kV136OjLrFjEcRnl-41" value="Ellie Goulding" style="text;whiteSpace=wrap;spacingLeft=16;spacingRight=16;spacing=0;fontSize=14;fontColor=#FFFFFF;" vertex="1" parent="Mz33kV136OjLrFjEcRnl-39">
          <mxGeometry y="55" width="342" height="50" as="geometry"/>
        </mxCell>
        <mxCell id="Mz33kV136OjLrFjEcRnl-42" value="" style="dashed=0;shape=mxgraph.gmdl.marginRect;rectMargin=24;rectMarginRight=8;fillColor=#BDBDBD;strokeColor=none;" vertex="1" parent="Mz33kV136OjLrFjEcRnl-39">
          <mxGeometry x="194" width="164" height="156" as="geometry">
            <mxPoint x="-160" as="offset"/>
          </mxGeometry>
        </mxCell>
        <mxCell id="Mz33kV136OjLrFjEcRnl-43" value="" style="dashed=0;shape=mxgraph.gmdl.marginRect;rectMargin=8;rectMarginTop=-4;rectMarginBottom=-4;fillColor=#AB1656;strokeColor=none;shadow=1;" vertex="1" parent="Mz33kV136OjLrFjEcRnl-25">
          <mxGeometry y="567" width="358" height="35" as="geometry"/>
        </mxCell>
        <mxCell id="Mz33kV136OjLrFjEcRnl-44" value="" style="dashed=0;shape=mxgraph.gmdl.marginRect;rectMargin=24;rectMarginRight=8;fillColor=#BDBDBD;strokeColor=none;" vertex="1" parent="Mz33kV136OjLrFjEcRnl-43">
          <mxGeometry x="194" width="164" height="35" as="geometry">
            <mxPoint x="-160" as="offset"/>
          </mxGeometry>
        </mxCell>
        <mxCell id="Mz33kV136OjLrFjEcRnl-45" value="" style="dashed=0;shape=rect;strokeColor=none;fillColor=#000000;resizeWidth=1;" vertex="1" parent="Mz33kV136OjLrFjEcRnl-25">
          <mxGeometry y="1" width="358" height="48" relative="1" as="geometry">
            <mxPoint y="-48" as="offset"/>
          </mxGeometry>
        </mxCell>
        <mxCell id="Mz33kV136OjLrFjEcRnl-46" value="" style="dashed=0;shape=mxgraph.gmdl.back;strokeColor=#ffffff;fillColor=#000000;strokeWidth=2;" vertex="1" parent="Mz33kV136OjLrFjEcRnl-45">
          <mxGeometry x="0.25" y="0.5" width="14" height="14" relative="1" as="geometry">
            <mxPoint x="-7" y="-7" as="offset"/>
          </mxGeometry>
        </mxCell>
        <mxCell id="Mz33kV136OjLrFjEcRnl-47" value="" style="shape=ellipse;strokeColor=#ffffff;fillColor=#000000;strokeWidth=2;" vertex="1" parent="Mz33kV136OjLrFjEcRnl-45">
          <mxGeometry x="0.5" y="0.5" width="14" height="14" relative="1" as="geometry">
            <mxPoint x="-7" y="-7" as="offset"/>
          </mxGeometry>
        </mxCell>
        <mxCell id="Mz33kV136OjLrFjEcRnl-48" value="" style="shape=rect;strokeColor=#ffffff;fillColor=#000000;strokeWidth=2;" vertex="1" parent="Mz33kV136OjLrFjEcRnl-45">
          <mxGeometry x="0.75" y="0.5" width="14" height="14" relative="1" as="geometry">
            <mxPoint x="-7" y="-7" as="offset"/>
          </mxGeometry>
        </mxCell>
        <mxCell id="Mz33kV136OjLrFjEcRnl-62" value="" style="verticalLabelPosition=bottom;verticalAlign=top;html=1;shadow=0;dashed=0;strokeWidth=1;shape=mxgraph.ios.iBgFlat;strokeColor=#18211b;fillColor=#FFFFFF;fontColor=#0000CC;" vertex="1" parent="1">
          <mxGeometry x="40" y="40" width="380" height="630" as="geometry"/>
        </mxCell>
        <mxCell id="Mz33kV136OjLrFjEcRnl-63" value="12:30" style="dashed=0;shape=rect;align=right;fillColor=#0000FF;strokeColor=none;fontColor=#FFFFFF;spacingRight=4;spacingTop=1;fontStyle=0;fontSize=13;resizeWidth=1;" vertex="1" parent="1">
          <mxGeometry x="50" y="50" width="358" height="24" as="geometry"/>
        </mxCell>
        <mxCell id="Mz33kV136OjLrFjEcRnl-64" value="" style="dashed=0;shape=mxgraph.gmdl.top_bar;strokeColor=none;" vertex="1" parent="Mz33kV136OjLrFjEcRnl-63">
          <mxGeometry x="1" y="0.5" width="46" height="14" relative="1" as="geometry">
            <mxPoint x="-92" y="-7" as="offset"/>
          </mxGeometry>
        </mxCell>
        <mxCell id="Mz33kV136OjLrFjEcRnl-65" value="" style="dashed=0;shape=rect;strokeColor=none;fillColor=#3399FF;resizeWidth=1;fontSize=22;fontColor=#FFFFFF;spacingTop=1;verticalAlign=middle;spacingLeft=72;align=left;" vertex="1" parent="1">
          <mxGeometry x="50" y="75" width="358" height="57" as="geometry">
            <mxPoint y="24" as="offset"/>
          </mxGeometry>
        </mxCell>
        <mxCell id="Mz33kV136OjLrFjEcRnl-66" value="" style="dashed=0;shape=mxgraph.gmdl.preferences;strokeColor=none;fillColor=#3333FF;fontColor=#0000CC;" vertex="1" parent="Mz33kV136OjLrFjEcRnl-65">
          <mxGeometry y="0.5" width="24" height="16" relative="1" as="geometry">
            <mxPoint x="16" y="-8" as="offset"/>
          </mxGeometry>
        </mxCell>
        <mxCell id="Mz33kV136OjLrFjEcRnl-67" value="" style="dashed=0;shape=mxgraph.gmdl.search;strokeColor=#FFFFFF;fillColor=none;strokeWidth=2;" vertex="1" parent="Mz33kV136OjLrFjEcRnl-65">
          <mxGeometry x="1" y="0.5" width="16" height="16" relative="1" as="geometry">
            <mxPoint x="-30" y="-8" as="offset"/>
          </mxGeometry>
        </mxCell>
        <mxCell id="Mz33kV136OjLrFjEcRnl-75" value="" style="rounded=0;whiteSpace=wrap;html=1;fontSize=12;shadow=1;" vertex="1" parent="1">
          <mxGeometry x="60" y="141" width="340" height="172" as="geometry"/>
        </mxCell>
        <mxCell id="Mz33kV136OjLrFjEcRnl-77" value="&amp;nbsp;수익률" style="text;strokeColor=none;fillColor=none;html=1;fontSize=20;fontStyle=1;verticalAlign=middle;align=left;fontColor=#1A1A1A;" vertex="1" parent="1">
          <mxGeometry x="60" y="141" width="110" height="32" as="geometry"/>
        </mxCell>
        <mxCell id="Mz33kV136OjLrFjEcRnl-78" value="" style="rounded=0;whiteSpace=wrap;html=1;shadow=1;strokeColor=none;fillColor=#3399FF;fontSize=20;fontColor=#808080;align=left;" vertex="1" parent="1">
          <mxGeometry x="80" y="183" width="80" height="110" as="geometry"/>
        </mxCell>
        <mxCell id="Mz33kV136OjLrFjEcRnl-80" value="" style="rounded=0;whiteSpace=wrap;html=1;shadow=1;strokeColor=none;fillColor=#3399FF;fontSize=20;fontColor=#808080;align=left;" vertex="1" parent="1">
          <mxGeometry x="170" y="183" width="80" height="110" as="geometry"/>
        </mxCell>
        <mxCell id="Mz33kV136OjLrFjEcRnl-81" value="" style="rounded=0;whiteSpace=wrap;html=1;shadow=1;strokeColor=none;fillColor=#3399FF;fontSize=20;fontColor=#808080;align=left;" vertex="1" parent="1">
          <mxGeometry x="260" y="183" width="80" height="110" as="geometry"/>
        </mxCell>
        <mxCell id="Mz33kV136OjLrFjEcRnl-82" value="" style="rounded=0;whiteSpace=wrap;html=1;shadow=1;strokeColor=none;fillColor=#3399FF;fontSize=20;fontColor=#808080;align=left;" vertex="1" parent="1">
          <mxGeometry x="350" y="183" width="48" height="110" as="geometry"/>
        </mxCell>
        <mxCell id="Mz33kV136OjLrFjEcRnl-84" value="&lt;font style=&quot;font-size: 9px ; font-weight: normal&quot;&gt;피델리티재팬&lt;br&gt;증권자투자&lt;br&gt;&lt;br&gt;해외/ 고위험&lt;br&gt;&lt;/font&gt;" style="text;strokeColor=none;fillColor=none;html=1;fontSize=8;fontStyle=1;verticalAlign=middle;align=left;fontColor=#FFFFFF;" vertex="1" parent="1">
          <mxGeometry x="83" y="237" width="77" height="43" as="geometry"/>
        </mxCell>
        <mxCell id="Mz33kV136OjLrFjEcRnl-85" value="&lt;font style=&quot;font-size: 9px ; font-weight: normal&quot;&gt;삼성클래식인도&lt;br&gt;중소형FOCUS&lt;br&gt;&lt;br&gt;해외/ 고위험&lt;br&gt;&lt;/font&gt;" style="text;strokeColor=none;fillColor=none;html=1;fontSize=8;fontStyle=1;verticalAlign=middle;align=left;fontColor=#FFFFFF;" vertex="1" parent="1">
          <mxGeometry x="171.5" y="238" width="77" height="43" as="geometry"/>
        </mxCell>
        <mxCell id="Mz33kV136OjLrFjEcRnl-86" value="&lt;font style=&quot;font-size: 9px ; font-weight: normal&quot;&gt;삼성노무라일본&lt;br&gt;증권전환형&lt;br&gt;&lt;br&gt;해외/ 고위험&lt;br&gt;&lt;/font&gt;" style="text;strokeColor=none;fillColor=none;html=1;fontSize=8;fontStyle=1;verticalAlign=middle;align=left;fontColor=#FFFFFF;" vertex="1" parent="1">
          <mxGeometry x="263" y="237" width="77" height="43" as="geometry"/>
        </mxCell>
        <mxCell id="Mz33kV136OjLrFjEcRnl-88" value="&lt;font style=&quot;font-size: 9px ; font-weight: normal&quot;&gt;삼성클래&lt;br&gt;연금증권&lt;br&gt;&lt;br&gt;해외/ 고&lt;br&gt;&lt;/font&gt;" style="text;strokeColor=none;fillColor=none;html=1;fontSize=8;fontStyle=1;verticalAlign=middle;align=left;fontColor=#FFFFFF;" vertex="1" parent="1">
          <mxGeometry x="350" y="237" width="50" height="43" as="geometry"/>
        </mxCell>
        <mxCell id="Mz33kV136OjLrFjEcRnl-89" value="&lt;font style=&quot;font-size: 15px&quot;&gt;3M &lt;/font&gt;&lt;font color=&quot;#ff0000&quot; style=&quot;font-size: 15px&quot;&gt;13.37%&lt;/font&gt;" style="text;strokeColor=none;fillColor=none;html=1;fontSize=15;fontStyle=1;verticalAlign=middle;align=left;" vertex="1" parent="1">
          <mxGeometry x="83" y="195" width="77" height="20" as="geometry"/>
        </mxCell>
        <mxCell id="Mz33kV136OjLrFjEcRnl-90" value="&lt;font style=&quot;font-size: 15px&quot;&gt;3M &lt;/font&gt;&lt;font color=&quot;#ff0000&quot; style=&quot;font-size: 15px&quot;&gt;12.59%&lt;/font&gt;" style="text;strokeColor=none;fillColor=none;html=1;fontSize=15;fontStyle=1;verticalAlign=middle;align=left;" vertex="1" parent="1">
          <mxGeometry x="171.5" y="195.5" width="77" height="20" as="geometry"/>
        </mxCell>
        <mxCell id="Mz33kV136OjLrFjEcRnl-91" value="&lt;font style=&quot;font-size: 15px&quot;&gt;3M&lt;/font&gt;&lt;font color=&quot;#ff0000&quot; style=&quot;font-size: 15px&quot;&gt; 11.66%&lt;/font&gt;" style="text;strokeColor=none;fillColor=none;html=1;fontSize=15;fontStyle=1;verticalAlign=middle;align=left;" vertex="1" parent="1">
          <mxGeometry x="263" y="195.5" width="77" height="20" as="geometry"/>
        </mxCell>
        <mxCell id="Mz33kV136OjLrFjEcRnl-92" value="&lt;font style=&quot;font-size: 15px&quot;&gt;3M&lt;/font&gt;&lt;font color=&quot;#ff0000&quot; style=&quot;font-size: 15px&quot;&gt; 11&lt;/font&gt;" style="text;strokeColor=none;fillColor=none;html=1;fontSize=15;fontStyle=1;verticalAlign=middle;align=left;" vertex="1" parent="1">
          <mxGeometry x="350" y="195.5" width="77" height="20" as="geometry"/>
        </mxCell>
        <mxCell id="Mz33kV136OjLrFjEcRnl-107" value="" style="rounded=0;whiteSpace=wrap;html=1;fontSize=12;shadow=1;" vertex="1" parent="1">
          <mxGeometry x="60" y="323" width="340" height="172" as="geometry"/>
        </mxCell>
        <mxCell id="Mz33kV136OjLrFjEcRnl-108" value="원금지급" style="text;strokeColor=none;fillColor=none;html=1;fontSize=20;fontStyle=1;verticalAlign=middle;align=left;fontColor=#1A1A1A;" vertex="1" parent="1">
          <mxGeometry x="60" y="323" width="110" height="32" as="geometry"/>
        </mxCell>
        <mxCell id="Mz33kV136OjLrFjEcRnl-109" value="" style="rounded=0;whiteSpace=wrap;html=1;shadow=1;strokeColor=none;fillColor=#AD46AD;fontSize=20;fontColor=#808080;align=left;" vertex="1" parent="1">
          <mxGeometry x="80" y="365" width="80" height="110" as="geometry"/>
        </mxCell>
        <mxCell id="Mz33kV136OjLrFjEcRnl-110" value="" style="rounded=0;whiteSpace=wrap;html=1;shadow=1;strokeColor=none;fillColor=#AD46AD;fontSize=20;fontColor=#808080;align=left;" vertex="1" parent="1">
          <mxGeometry x="170" y="365" width="80" height="110" as="geometry"/>
        </mxCell>
        <mxCell id="Mz33kV136OjLrFjEcRnl-111" value="" style="rounded=0;whiteSpace=wrap;html=1;shadow=1;strokeColor=none;fillColor=#AD46AD;fontSize=20;fontColor=#808080;align=left;" vertex="1" parent="1">
          <mxGeometry x="260" y="365" width="80" height="110" as="geometry"/>
        </mxCell>
        <mxCell id="Mz33kV136OjLrFjEcRnl-112" value="" style="rounded=0;whiteSpace=wrap;html=1;shadow=1;strokeColor=none;fillColor=#AD46AD;fontSize=20;fontColor=#808080;align=left;" vertex="1" parent="1">
          <mxGeometry x="350" y="365" width="48" height="110" as="geometry"/>
        </mxCell>
        <mxCell id="Mz33kV136OjLrFjEcRnl-113" value="&lt;font style=&quot;font-size: 9px ; font-weight: normal&quot;&gt;&lt;font color=&quot;#ffffff&quot;&gt;ELB 제 1180회&lt;br&gt;한국전력&lt;br&gt;&lt;br&gt;디지털콜, 옵션&lt;/font&gt;&lt;br&gt;&lt;/font&gt;" style="text;strokeColor=none;fillColor=none;html=1;fontSize=8;fontStyle=1;verticalAlign=middle;align=left;" vertex="1" parent="1">
          <mxGeometry x="83" y="419" width="77" height="43" as="geometry"/>
        </mxCell>
        <mxCell id="Mz33kV136OjLrFjEcRnl-114" value="&lt;font style=&quot;font-size: 9px ; font-weight: normal&quot;&gt;&lt;font color=&quot;#ffffff&quot;&gt;ELB 제 1181회&lt;br&gt;한국전력&lt;br&gt;&lt;br&gt;디지털콜, 옵션&lt;/font&gt;&lt;br&gt;&lt;/font&gt;" style="text;strokeColor=none;fillColor=none;html=1;fontSize=8;fontStyle=1;verticalAlign=middle;align=left;" vertex="1" parent="1">
          <mxGeometry x="171.5" y="420" width="77" height="43" as="geometry"/>
        </mxCell>
        <mxCell id="Mz33kV136OjLrFjEcRnl-115" value="&lt;font style=&quot;font-size: 9px ; font-weight: normal&quot;&gt;&lt;font color=&quot;#ffffff&quot;&gt;DLB 제857회&lt;br&gt;USD KRW 환율&lt;br&gt;&lt;br&gt;원금지급, 옵션&lt;/font&gt;&lt;br&gt;&lt;/font&gt;" style="text;strokeColor=none;fillColor=none;html=1;fontSize=8;fontStyle=1;verticalAlign=middle;align=left;" vertex="1" parent="1">
          <mxGeometry x="263" y="419" width="77" height="43" as="geometry"/>
        </mxCell>
        <mxCell id="Mz33kV136OjLrFjEcRnl-116" value="&lt;font style=&quot;font-size: 9px ; font-weight: normal&quot;&gt;&lt;font color=&quot;#ffffff&quot;&gt;DLB 제85&lt;br&gt;USD KWD&lt;br&gt;&lt;br&gt;원금지급&lt;/font&gt;&lt;br&gt;&lt;/font&gt;" style="text;strokeColor=none;fillColor=none;html=1;fontSize=8;fontStyle=1;verticalAlign=middle;align=left;" vertex="1" parent="1">
          <mxGeometry x="350" y="419" width="50" height="43" as="geometry"/>
        </mxCell>
        <mxCell id="Mz33kV136OjLrFjEcRnl-117" value="&lt;font style=&quot;font-size: 15px&quot;&gt;1Y&lt;/font&gt;&lt;font color=&quot;#ff0000&quot; style=&quot;font-size: 15px&quot;&gt; 1.44%&lt;/font&gt;" style="text;strokeColor=none;fillColor=none;html=1;fontSize=15;fontStyle=1;verticalAlign=middle;align=left;" vertex="1" parent="1">
          <mxGeometry x="83" y="377" width="77" height="20" as="geometry"/>
        </mxCell>
        <mxCell id="Mz33kV136OjLrFjEcRnl-118" value="&lt;font style=&quot;font-size: 15px&quot;&gt;1Y&lt;/font&gt;&lt;font color=&quot;#ff0000&quot; style=&quot;font-size: 15px&quot;&gt; 1.62%&lt;/font&gt;" style="text;strokeColor=none;fillColor=none;html=1;fontSize=15;fontStyle=1;verticalAlign=middle;align=left;" vertex="1" parent="1">
          <mxGeometry x="171.5" y="377.5" width="77" height="20" as="geometry"/>
        </mxCell>
        <mxCell id="Mz33kV136OjLrFjEcRnl-119" value="&lt;font style=&quot;font-size: 15px&quot;&gt;만기&lt;/font&gt;&lt;font color=&quot;#ff0000&quot; style=&quot;font-size: 15px&quot;&gt; 7.50%&lt;/font&gt;" style="text;strokeColor=none;fillColor=none;html=1;fontSize=15;fontStyle=1;verticalAlign=middle;align=left;" vertex="1" parent="1">
          <mxGeometry x="263" y="377.5" width="77" height="20" as="geometry"/>
        </mxCell>
        <mxCell id="Mz33kV136OjLrFjEcRnl-120" value="&lt;font style=&quot;font-size: 15px&quot;&gt;1Y&lt;/font&gt;&lt;font color=&quot;#ff0000&quot; style=&quot;font-size: 15px&quot;&gt; 3.2&lt;/font&gt;" style="text;strokeColor=none;fillColor=none;html=1;fontSize=15;fontStyle=1;verticalAlign=middle;align=left;" vertex="1" parent="1">
          <mxGeometry x="350" y="377.5" width="77" height="20" as="geometry"/>
        </mxCell>
        <mxCell id="Mz33kV136OjLrFjEcRnl-121" value="" style="rounded=0;whiteSpace=wrap;html=1;fontSize=12;shadow=1;" vertex="1" parent="1">
          <mxGeometry x="60" y="504" width="340" height="146" as="geometry"/>
        </mxCell>
        <mxCell id="Mz33kV136OjLrFjEcRnl-122" value="해외 선진국" style="text;strokeColor=none;fillColor=none;html=1;fontSize=20;fontStyle=1;verticalAlign=middle;align=left;fontColor=#1A1A1A;" vertex="1" parent="1">
          <mxGeometry x="60" y="504" width="110" height="32" as="geometry"/>
        </mxCell>
        <mxCell id="Mz33kV136OjLrFjEcRnl-123" value="" style="rounded=0;whiteSpace=wrap;html=1;shadow=1;strokeColor=none;fillColor=#3C9669;fontSize=20;fontColor=#808080;align=left;" vertex="1" parent="1">
          <mxGeometry x="80" y="546" width="80" height="110" as="geometry"/>
        </mxCell>
        <mxCell id="Mz33kV136OjLrFjEcRnl-124" value="" style="rounded=0;whiteSpace=wrap;html=1;shadow=1;strokeColor=none;fillColor=#3C9669;fontSize=20;fontColor=#808080;align=left;" vertex="1" parent="1">
          <mxGeometry x="170" y="546" width="80" height="110" as="geometry"/>
        </mxCell>
        <mxCell id="Mz33kV136OjLrFjEcRnl-125" value="" style="rounded=0;whiteSpace=wrap;html=1;shadow=1;strokeColor=none;fillColor=#3C9669;fontSize=20;fontColor=#808080;align=left;" vertex="1" parent="1">
          <mxGeometry x="260" y="546" width="80" height="110" as="geometry"/>
        </mxCell>
        <mxCell id="Mz33kV136OjLrFjEcRnl-126" value="" style="rounded=0;whiteSpace=wrap;html=1;shadow=1;strokeColor=none;fillColor=#3C9669;fontSize=20;fontColor=#808080;align=left;" vertex="1" parent="1">
          <mxGeometry x="350" y="546" width="48" height="110" as="geometry"/>
        </mxCell>
        <mxCell id="Mz33kV136OjLrFjEcRnl-127" value="&lt;font style=&quot;font-size: 9px ; font-weight: normal&quot;&gt;AB미국그로스&lt;br&gt;증권투자신탁&lt;br&gt;&lt;br&gt;해외/ 고위험&lt;br&gt;&lt;/font&gt;" style="text;strokeColor=none;fillColor=none;html=1;fontSize=8;fontStyle=1;verticalAlign=middle;align=left;fontColor=#FFFFFF;" vertex="1" parent="1">
          <mxGeometry x="83" y="600" width="77" height="43" as="geometry"/>
        </mxCell>
        <mxCell id="Mz33kV136OjLrFjEcRnl-128" value="&lt;font style=&quot;font-size: 9px ; font-weight: normal&quot;&gt;이스트스프링미국&lt;br&gt;투자적격회사채&lt;br&gt;&lt;br&gt;해외/ 중위험&lt;br&gt;&lt;/font&gt;" style="text;strokeColor=none;fillColor=none;html=1;fontSize=8;fontStyle=1;verticalAlign=middle;align=left;fontColor=#FFFFFF;" vertex="1" parent="1">
          <mxGeometry x="170.5" y="601" width="77" height="43" as="geometry"/>
        </mxCell>
        <mxCell id="Mz33kV136OjLrFjEcRnl-129" value="&lt;font style=&quot;font-size: 9px ; font-weight: normal&quot;&gt;유리글로벌거래소&lt;br&gt;증권자투자1호&lt;br&gt;&lt;br&gt;해외/ 고위험&lt;br&gt;&lt;/font&gt;" style="text;strokeColor=none;fillColor=none;html=1;fontSize=8;fontStyle=1;verticalAlign=middle;align=left;fontColor=#FFFFFF;" vertex="1" parent="1">
          <mxGeometry x="262" y="600" width="77" height="43" as="geometry"/>
        </mxCell>
        <mxCell id="Mz33kV136OjLrFjEcRnl-130" value="&lt;font style=&quot;font-size: 9px ; font-weight: normal&quot;&gt;프랭클린&lt;br&gt;증권자투&lt;br&gt;&lt;br&gt;해외/ 고&lt;br&gt;&lt;/font&gt;" style="text;strokeColor=none;fillColor=none;html=1;fontSize=8;fontStyle=1;verticalAlign=middle;align=left;fontColor=#FFFFFF;" vertex="1" parent="1">
          <mxGeometry x="350" y="600" width="50" height="43" as="geometry"/>
        </mxCell>
        <mxCell id="Mz33kV136OjLrFjEcRnl-131" value="&lt;font style=&quot;font-size: 15px&quot;&gt;3M&lt;/font&gt;&lt;font color=&quot;#ff0000&quot; style=&quot;font-size: 15px&quot;&gt; 4.3%&lt;/font&gt;" style="text;strokeColor=none;fillColor=none;html=1;fontSize=15;fontStyle=1;verticalAlign=middle;align=left;" vertex="1" parent="1">
          <mxGeometry x="83" y="558" width="77" height="20" as="geometry"/>
        </mxCell>
        <mxCell id="Mz33kV136OjLrFjEcRnl-132" value="&lt;font style=&quot;font-size: 15px&quot;&gt;3M&lt;/font&gt;&lt;font color=&quot;#ff0000&quot; style=&quot;font-size: 15px&quot;&gt;&amp;nbsp; &lt;/font&gt;&lt;font style=&quot;font-size: 15px&quot; color=&quot;#0000ff&quot;&gt;-0.08%&lt;/font&gt;" style="text;strokeColor=none;fillColor=none;html=1;fontSize=15;fontStyle=1;verticalAlign=middle;align=left;" vertex="1" parent="1">
          <mxGeometry x="171.5" y="558.5" width="77" height="20" as="geometry"/>
        </mxCell>
        <mxCell id="Mz33kV136OjLrFjEcRnl-133" value="&lt;font style=&quot;font-size: 15px&quot;&gt;3M&lt;/font&gt;&lt;font color=&quot;#ff0000&quot; style=&quot;font-size: 15px&quot;&gt;&amp;nbsp; 2.62%&lt;/font&gt;" style="text;strokeColor=none;fillColor=none;html=1;fontSize=15;fontStyle=1;verticalAlign=middle;align=left;" vertex="1" parent="1">
          <mxGeometry x="263" y="558.5" width="77" height="20" as="geometry"/>
        </mxCell>
        <mxCell id="Mz33kV136OjLrFjEcRnl-134" value="&lt;font style=&quot;font-size: 15px&quot;&gt;3M&lt;/font&gt;&lt;font color=&quot;#ff0000&quot; style=&quot;font-size: 15px&quot;&gt; 12&lt;/font&gt;" style="text;strokeColor=none;fillColor=none;html=1;fontSize=15;fontStyle=1;verticalAlign=middle;align=left;" vertex="1" parent="1">
          <mxGeometry x="350" y="558.5" width="77" height="20" as="geometry"/>
        </mxCell>
        <mxCell id="Mz33kV136OjLrFjEcRnl-139" value="" style="verticalLabelPosition=bottom;verticalAlign=top;html=1;shadow=0;dashed=0;strokeWidth=1;shape=mxgraph.ios.iProgressBar;barPos=40;fillColor=#999900;fontSize=15;fontColor=#1A1A1A;align=left;" vertex="1" parent="1">
          <mxGeometry x="70" y="301" width="320" height="10" as="geometry"/>
        </mxCell>
        <mxCell id="Mz33kV136OjLrFjEcRnl-149" value="" style="dashed=0;shape=rect;strokeColor=none;fillColor=#000000;resizeWidth=1;" vertex="1" parent="1">
          <mxGeometry y="1" width="358" height="48" relative="1" as="geometry">
            <mxPoint x="55" y="610.5" as="offset"/>
          </mxGeometry>
        </mxCell>
        <mxCell id="Mz33kV136OjLrFjEcRnl-150" value="" style="dashed=0;shape=mxgraph.gmdl.back;strokeColor=#ffffff;fillColor=#000000;strokeWidth=2;" vertex="1" parent="Mz33kV136OjLrFjEcRnl-149">
          <mxGeometry x="0.25" y="0.5" width="14" height="14" relative="1" as="geometry">
            <mxPoint x="-7" y="-7" as="offset"/>
          </mxGeometry>
        </mxCell>
        <mxCell id="Mz33kV136OjLrFjEcRnl-151" value="" style="shape=ellipse;strokeColor=#ffffff;fillColor=#000000;strokeWidth=2;" vertex="1" parent="Mz33kV136OjLrFjEcRnl-149">
          <mxGeometry x="0.5" y="0.5" width="14" height="14" relative="1" as="geometry">
            <mxPoint x="-7" y="-7" as="offset"/>
          </mxGeometry>
        </mxCell>
        <mxCell id="Mz33kV136OjLrFjEcRnl-152" value="" style="shape=rect;strokeColor=#ffffff;fillColor=#000000;strokeWidth=2;" vertex="1" parent="Mz33kV136OjLrFjEcRnl-149">
          <mxGeometry x="0.75" y="0.5" width="14" height="14" relative="1" as="geometry">
            <mxPoint x="-7" y="-7" as="offset"/>
          </mxGeometry>
        </mxCell>
      </root>
    </mxGraphModel>
  </diagram>
</mxfile>
